<?xml version="1.0" encoding="UTF-8" standalone="no"?>
<!-- Created with Inkscape (http://www.inkscape.org/) -->

<svg
   width="81.174026mm"
   height="47.459072mm"
   viewBox="0 0 81.174026 47.459072"
   version="1.1"
   id="svg1"
   xml:space="preserve"
   xmlns:inkscape="http://www.inkscape.org/namespaces/inkscape"
   xmlns:sodipodi="http://sodipodi.sourceforge.net/DTD/sodipodi-0.dtd"
   xmlns="http://www.w3.org/2000/svg"
   xmlns:svg="http://www.w3.org/2000/svg"><sodipodi:namedview
     id="namedview1"
     pagecolor="#ffffff"
     bordercolor="#000000"
     borderopacity="0.25"
     inkscape:showpageshadow="2"
     inkscape:pageopacity="0.0"
     inkscape:pagecheckerboard="0"
     inkscape:deskcolor="#d1d1d1"
     inkscape:document-units="mm" /><defs
     id="defs1" /><g
     inkscape:label="Capa 1"
     inkscape:groupmode="layer"
     id="layer1"
     transform="translate(-61.51571,-204.77751)"><path
       id="path2"
       style="fill:#000000;fill-opacity:1;stroke-width:0.300053"
       d="m 92.014776,252.11161 c -0.240812,-0.11374 -0.3819,-0.23328 -0.469739,-0.39784 -0.109814,-0.20572 -0.899542,-5.85634 -0.840857,-6.01627 0.01159,-0.0339 1.648123,0.69056 3.635144,1.60913 l 3.612696,1.67031 -2.546726,1.59861 c -1.400693,0.87925 -2.659132,1.62113 -2.796515,1.64866 -0.170029,0.0341 -0.359767,-0.002 -0.594033,-0.11251 z m 2.893877,-6.07321 -4.440404,-2.06186 -0.189841,-1.48524 c -0.104046,-0.81683 -0.164136,-1.49037 -0.133317,-1.49655 0.03111,-0.006 2.655887,1.23666 5.832849,2.76195 4.2689,2.04964 5.75467,2.79407 5.6933,2.85312 -0.0457,0.0438 -0.54274,0.36841 -1.10466,0.72113 -0.56192,0.35271 -1.065769,0.67009 -1.119642,0.70528 -0.06609,0.0432 -1.539142,-0.6052 -4.538367,-1.99784 z m 6.301127,-1.29898 c -0.81456,-0.39298 -2.002058,-0.96625 -2.638489,-1.27478 l -1.157155,-0.56106 6.902444,-14.59382 6.90243,-14.59382 2.20931,1.16533 c 1.21512,0.64092 2.38206,1.25769 2.59317,1.3706 l 0.3839,0.20524 -6.85713,14.49798 -6.85714,14.49796 z m -8.173248,-3.94083 -2.662049,-1.28622 6.972669,-14.73291 6.972688,-14.73289 2.33175,1.23366 c 1.28244,0.67853 2.45829,1.30637 2.61296,1.39523 l 0.28121,0.16158 -6.92357,14.62384 -6.923566,14.62387 z m 18.760508,-28.3567 c -2.8534,-1.5099 -5.57242,-2.94626 -6.04226,-3.19192 l -0.85427,-0.44664 0.55471,-1.1786 c 0.90515,-1.92408 1.33414,-2.35787 2.65663,-2.6859 0.94739,-0.235 1.71891,-0.21473 2.6799,0.0705 0.34563,0.10262 1.72262,0.70875 3.06322,1.34849 2.54126,1.21256 2.88587,1.42417 3.71467,2.27979 0.26514,0.27373 0.41943,0.51402 0.67594,1.05274 0.36879,0.77456 0.46083,1.29974 0.34536,1.97115 -0.0734,0.42677 -1.01112,2.57593 -1.38356,3.17082 l -0.2222,0.35489 z m -36.925954,28.20772 c -10.042527,-6.27314 -11.388204,-7.10891 -12.36319,-7.67845 l -0.992188,-0.57959 v -2.07022 -2.07021 l 5.417753,-3.39376 c 2.979765,-1.86656 6.581405,-4.10942 8.003646,-4.98413 1.422241,-0.87471 3.089543,-1.91651 3.705115,-2.31511 0.615571,-0.3986 1.226989,-0.72472 1.358706,-0.72472 0.22934,0 2.416864,3.41862 2.416864,3.77702 0,0.18334 -1.717883,1.31938 -6.482292,4.28675 -9.263586,5.76957 -8.625525,5.32061 -8.069792,5.67806 1.49406,0.96097 6.883122,4.35746 10.381792,6.54319 2.290245,1.43079 4.165479,2.6822 4.167187,2.78091 0.0048,0.27835 -1.85616,3.33357 -2.20878,3.62622 -0.220124,0.18268 -1.812913,-0.67598 -5.334821,-2.87596 z m 48.311284,1.96742 c -0.44687,-0.66214 -0.81249,-1.30241 -0.81249,-1.42281 0,-0.12041 -0.17859,-0.36715 -0.39688,-0.5483 -0.21828,-0.18116 -0.39687,-0.42973 -0.39687,-0.55237 0,-0.25943 3.60147,-2.62658 8.06979,-5.30407 1.01865,-0.61038 1.91162,-1.18968 1.98438,-1.28731 0.0728,-0.0976 0.97144,-0.66457 1.99707,-1.25984 1.02563,-0.59528 2.13404,-1.30036 2.46314,-1.56685 l 0.59837,-0.48452 -1.6694,-1.00517 c -0.91816,-0.55284 -2.35152,-1.44493 -3.18522,-1.98242 -0.83371,-0.53748 -2.56012,-1.61947 -3.83646,-2.40442 -3.52336,-2.16686 -6.42167,-4.05226 -6.42167,-4.17741 0,-0.26028 2.41621,-3.78733 2.58888,-3.77911 0.10408,0.005 1.32034,0.71766 2.70279,1.58377 1.38244,0.86611 3.34698,2.07227 4.36562,2.68035 1.01865,0.60808 1.91162,1.1753 1.98438,1.2605 0.0728,0.0852 0.37041,0.29838 0.66146,0.47374 0.73983,0.44577 3.29873,2.00824 3.81097,2.327 0.23385,0.14552 1.37705,0.8556 2.54044,1.57795 1.16339,0.72235 2.2054,1.43672 2.31559,1.5875 0.11018,0.15077 0.16971,1.10627 0.13229,2.12333 l -0.068,1.8492 -5.55625,3.50178 c -3.05594,1.92597 -5.81711,3.65368 -6.13593,3.83934 -1.39565,0.81276 -3.25337,1.96069 -4.89635,3.02559 -0.97452,0.63164 -1.82929,1.14844 -1.89948,1.14844 -0.0702,0 -0.49325,-0.54175 -0.94013,-1.20389 z" /></g></svg>
